<?xml version="1.0" standalone="no"?>
<!DOCTYPE svg PUBLIC "-//W3C//DTD SVG 20010904//EN"
 "http://www.w3.org/TR/2001/REC-SVG-20010904/DTD/svg10.dtd">
<svg version="1.0" xmlns="http://www.w3.org/2000/svg"
 width="800.000000pt" height="800.000000pt" viewBox="0 0 800.000000 800.000000"
 preserveAspectRatio="xMidYMid meet">

<g transform="translate(0.000000,800.000000) scale(0.100000,-0.100000)"
fill="#000000" stroke="none">
<path d="M3920 7570 c0 -5 -16 -7 -36 -4 -20 2 -42 -1 -49 -6 -7 -6 -39 -10
-72 -8 -33 1 -84 -6 -118 -16 -64 -18 -65 -19 -138 -35 -27 -6 -65 -20 -85
-30 -21 -10 -63 -26 -94 -36 -31 -10 -65 -26 -74 -36 -9 -10 -21 -16 -25 -13
-5 3 -9 1 -9 -5 0 -10 -55 -47 -79 -53 -8 -2 -23 -11 -33 -21 -14 -13 -23 -15
-31 -8 -9 7 -32 -2 -77 -31 -36 -23 -68 -47 -73 -54 -4 -7 -14 -20 -23 -29 -8
-8 -12 -15 -7 -15 4 -1 -2 -9 -14 -19 -12 -10 -20 -21 -17 -24 3 -3 -3 -12
-15 -19 -12 -7 -21 -18 -21 -25 0 -6 -18 -31 -39 -55 -44 -47 -74 -88 -122
-160 -18 -27 -36 -48 -40 -48 -5 0 -9 -6 -9 -12 0 -7 -12 -24 -26 -37 -14 -13
-23 -30 -20 -38 3 -8 2 -12 -3 -9 -10 6 -31 -37 -31 -64 0 -11 -5 -20 -11 -20
-6 0 -9 -9 -6 -20 3 -14 -1 -24 -15 -31 -14 -8 -16 -14 -9 -23 7 -8 7 -24 1
-47 -6 -18 -10 -44 -10 -56 0 -11 -16 -55 -35 -96 -19 -41 -35 -81 -35 -88 0
-8 -7 -27 -16 -44 -9 -16 -18 -41 -20 -55 -3 -14 -19 -58 -36 -99 -23 -52 -29
-76 -20 -79 14 -4 16 -48 3 -56 -4 -3 -7 -21 -5 -41 1 -19 -1 -37 -5 -39 -4
-3 -5 -24 -3 -48 3 -24 5 -55 6 -70 1 -25 16 -42 16 -18 0 6 4 10 10 10 6 0 5
-10 -2 -25 -9 -20 -8 -28 5 -42 11 -13 13 -23 6 -36 -6 -9 -7 -23 -2 -30 4 -6
6 -41 5 -77 l-2 -65 45 -33 c25 -18 44 -36 44 -40 -1 -4 -1 -14 0 -22 1 -12 3
-13 10 -1 7 11 11 10 20 -7 12 -23 8 -357 -5 -399 -3 -13 -2 -23 3 -23 5 0 9
10 10 21 4 45 21 42 47 -9 22 -43 23 -52 11 -62 -8 -7 -12 -17 -9 -22 4 -6 11
-4 16 6 8 14 17 7 52 -44 49 -70 127 -132 196 -157 29 -10 51 -25 53 -35 3
-10 14 -18 26 -18 12 0 21 -5 21 -11 0 -6 7 -8 16 -5 8 3 13 2 10 -3 -7 -10
17 -21 45 -21 12 0 16 -5 13 -15 -4 -8 -1 -15 5 -15 6 0 11 5 11 10 0 5 8 2
18 -8 14 -13 15 -20 6 -29 -20 -20 -39 -16 -23 4 12 14 12 16 -1 11 -8 -2 -19
-14 -25 -26 -11 -25 -41 -41 -32 -18 4 10 -4 17 -25 21 -20 5 -27 10 -20 17
13 13 4 40 -11 31 -7 -4 -8 0 -3 12 5 14 4 15 -7 7 -10 -9 -17 -6 -31 9 -9 11
-25 19 -34 17 -18 -4 -19 -10 -6 -42 6 -15 4 -17 -7 -11 -11 7 -11 5 1 -10 8
-10 10 -16 3 -12 -8 5 -13 -3 -16 -25 l-4 -33 -1 36 c-2 29 -7 38 -24 42 -12
4 -24 4 -27 1 -3 -3 5 -7 17 -11 26 -6 26 -6 8 -46 -8 -18 -17 -41 -21 -52 -6
-20 -7 -20 -21 -1 -8 11 -14 27 -14 35 0 13 2 13 9 2 6 -9 11 -10 15 -2 9 13
-2 33 -14 26 -5 -3 -20 9 -34 27 -23 29 -24 35 -10 48 13 13 16 13 24 0 5 -8
12 -11 17 -7 13 14 -13 42 -41 42 -35 1 -57 22 -36 35 13 8 12 10 -2 10 -10 0
-18 -6 -18 -12 -1 -7 -11 10 -24 37 -15 31 -20 54 -15 61 5 6 6 14 2 17 -3 4
-12 -1 -20 -11 -12 -16 -13 -15 -6 3 3 11 10 26 16 33 7 8 5 12 -7 12 -9 0
-16 -7 -16 -15 0 -8 -5 -24 -12 -34 -10 -16 -14 -17 -25 -5 -10 10 -11 19 -3
34 5 11 15 29 20 40 6 11 10 25 10 32 0 18 -29 -25 -30 -44 0 -9 -7 -24 -16
-32 -14 -14 -14 -18 -1 -31 12 -11 13 -23 5 -55 -6 -22 -14 -38 -18 -35 -3 2
-7 -2 -7 -9 0 -8 6 -12 14 -9 7 3 13 -2 13 -11 0 -9 -6 -16 -14 -16 -19 0 -26
-33 -10 -48 9 -8 11 -24 8 -45 -4 -24 -3 -28 5 -17 6 8 11 10 11 4 0 -5 -6
-16 -12 -22 -10 -10 -10 -15 2 -22 10 -7 11 -10 3 -10 -7 0 -13 -9 -13 -20 0
-11 -4 -20 -10 -20 -5 0 -10 5 -10 11 0 5 -4 7 -10 4 -5 -3 -10 -1 -10 4 0 6
4 11 8 11 5 0 8 13 7 30 -1 19 2 27 9 23 6 -4 5 0 -2 9 -10 13 -12 54 -7 185
10 313 15 418 25 508 5 50 10 95 10 100 0 30 -96 57 -128 36 -14 -9 -13 -32 3
-43 10 -7 -22 -12 -56 -9 -26 3 -31 -41 -19 -152 19 -169 57 -355 98 -482 30
-91 40 -138 42 -195 1 -41 3 -119 5 -174 1 -54 6 -101 12 -105 13 -8 16 -71 3
-71 -5 0 -10 -5 -10 -11 0 -5 5 -7 12 -3 7 5 9 2 5 -9 -8 -22 24 -129 61 -202
17 -33 32 -67 34 -75 2 -8 7 -18 11 -21 5 -3 10 -12 12 -20 9 -38 18 -59 26
-59 5 0 8 -3 8 -7 -4 -22 3 -32 16 -27 10 4 15 0 15 -11 0 -9 4 -14 9 -11 5 4
7 -3 4 -14 -6 -22 12 -28 21 -7 3 6 4 1 3 -13 -1 -18 2 -24 14 -22 18 3 38
-36 41 -80 2 -20 5 -24 15 -17 15 13 36 2 27 -13 -5 -7 -1 -9 9 -5 10 3 17 2
17 -4 0 -6 4 -8 9 -4 10 6 24 -11 28 -35 1 -8 7 -16 12 -18 6 -2 11 -11 11
-20 0 -14 2 -15 9 -2 6 8 7 19 4 25 -4 5 -2 6 3 2 13 -12 15 -41 20 -221 4
-121 1 -175 -11 -227 -29 -129 -12 -272 47 -397 43 -91 171 -245 301 -362 62
-55 139 -133 172 -173 33 -39 92 -105 133 -146 l73 -73 51 6 c43 6 62 17 132
74 44 38 115 93 156 124 81 60 335 272 360 299 8 9 49 43 90 75 221 171 474
421 566 559 99 149 132 255 154 494 8 87 16 131 29 150 10 14 31 46 47 71 16
25 32 47 37 48 4 2 7 10 7 18 0 8 5 14 10 14 6 0 10 -7 10 -15 0 -8 5 -15 10
-15 6 0 10 12 10 28 0 95 1 98 10 77 5 -11 9 -15 9 -8 1 6 4 19 8 29 4 10 2
15 -4 11 -5 -3 -10 0 -10 7 0 8 6 12 14 9 10 -4 12 2 8 25 -3 17 0 34 5 37 6
4 8 16 5 28 -5 20 -5 20 5 4 7 -10 9 -25 6 -33 -3 -8 -1 -12 4 -9 5 3 7 35 5
70 -3 41 -1 65 6 65 6 0 7 5 4 10 -4 6 7 13 24 16 18 4 33 14 37 27 5 15 8 17
15 6 14 -22 10 -5 -5 27 -13 24 -14 50 -6 74 1 3 1 17 0 33 -1 18 3 27 12 25
7 -2 12 5 12 14 -1 10 2 16 6 13 5 -3 14 8 22 25 7 16 16 30 19 30 18 0 108
160 101 179 -2 8 0 11 6 7 16 -9 129 229 141 298 6 33 11 104 11 158 0 92 -2
99 -25 120 -14 12 -25 31 -25 44 0 30 -48 48 -104 41 -39 -6 -42 -5 -41 16 2
12 8 21 15 19 8 -2 11 7 8 27 -2 17 -1 28 4 25 15 -10 21 28 8 50 -12 19 -12
20 3 7 14 -11 17 -11 18 0 1 15 4 30 9 42 1 4 4 12 5 17 1 6 4 11 5 13 7 7 6
68 -1 73 -17 10 -9 24 14 21 20 -2 22 2 20 37 -2 21 -8 46 -15 54 -11 13 -9
15 15 10 15 -3 27 -1 27 4 0 5 5 6 10 3 11 -7 9 23 -3 42 -4 7 -2 23 4 35 7
13 12 38 10 56 -1 17 1 32 6 32 10 0 9 65 -1 98 -13 41 -16 73 -21 231 -3 117
-9 170 -24 216 -11 34 -23 76 -26 94 -12 70 -172 330 -195 316 -4 -3 -14 3
-21 13 -13 16 -12 16 6 2 l20 -15 -20 24 c-23 27 -90 63 -99 54 -3 -4 -6 -1
-6 6 0 7 -4 10 -9 7 -13 -8 -22 37 -15 71 7 36 -32 174 -52 186 -8 4 -14 13
-14 18 0 6 -10 24 -21 41 -17 23 -24 27 -30 16 -7 -10 -9 -10 -9 2 -1 25 -71
76 -201 143 -112 59 -293 127 -337 127 -9 0 -30 7 -45 15 -15 8 -54 16 -86 19
-33 2 -68 9 -78 15 -11 5 -60 17 -110 26 -51 8 -118 24 -150 34 -35 11 -83 18
-123 17 -36 -1 -77 2 -92 6 -16 3 -28 3 -28 -2z m-947 -345 c-3 -9 -8 -14 -10
-11 -3 3 -2 9 2 15 9 16 15 13 8 -4z m635 -468 c7 0 11 -6 8 -14 -3 -7 -2 -13
3 -13 4 0 13 -10 19 -22 9 -19 11 -20 11 -5 1 10 6 15 11 12 6 -3 10 -1 10 5
0 7 -7 10 -15 6 -24 -9 -18 22 6 35 22 11 23 11 49 -31 7 -12 12 -13 29 -2 26
15 45 16 35 1 -5 -8 -1 -8 14 0 24 13 43 15 23 2 -11 -7 -9 -10 9 -16 15 -5
26 -2 32 6 7 10 8 6 5 -14 -3 -21 -1 -27 9 -23 8 3 14 0 14 -5 0 -6 8 -9 19
-6 11 3 25 -4 36 -20 10 -13 24 -22 31 -19 8 3 16 1 19 -5 4 -5 11 -7 16 -4 5
4 9 1 9 -5 0 -8 9 -10 23 -6 12 3 34 -1 48 -8 14 -7 37 -16 52 -20 15 -3 27
-10 27 -15 0 -5 14 -8 31 -7 18 1 33 -3 36 -11 3 -7 12 -13 20 -13 8 0 11 5 8
10 -4 7 4 9 22 6 15 -3 29 -10 31 -15 2 -6 11 -7 20 -4 9 3 14 2 9 -2 -11 -13
43 -31 86 -29 20 1 37 -2 37 -8 0 -5 8 -7 18 -4 9 3 24 1 32 -5 11 -8 9 -9
-10 -4 -21 5 -19 3 9 -15 22 -14 37 -18 44 -11 10 10 37 4 37 -10 0 -4 -7 -6
-15 -2 -10 3 -15 0 -13 -8 2 -9 -5 -13 -17 -12 -11 1 -14 0 -7 -3 6 -3 10 -10
7 -15 -4 -5 1 -6 9 -3 9 3 16 10 16 16 0 5 5 6 11 2 6 -3 9 -15 6 -25 -3 -11
-1 -19 4 -19 13 0 6 -23 -11 -37 -12 -9 -10 -10 11 -6 22 4 27 0 33 -23 5 -18
3 -30 -3 -32 -6 -2 -11 -8 -11 -13 0 -6 5 -7 12 -3 8 5 9 1 5 -12 -7 -18 -6
-18 8 1 9 11 13 25 10 33 -2 7 0 10 5 7 6 -3 10 -13 10 -21 0 -8 5 -14 10 -14
6 0 10 9 10 20 0 11 4 20 9 20 5 0 8 -7 7 -16 0 -9 5 -19 13 -22 8 -3 11 0 7
7 -4 6 -2 11 3 11 12 0 14 -13 4 -24 -4 -3 -8 -13 -9 -22 -2 -11 4 -13 19 -10
14 4 11 0 -8 -10 l-30 -15 28 6 c21 4 27 2 21 -6 -4 -7 -2 -10 7 -7 9 3 13 17
11 39 -1 23 1 29 7 20 5 -7 13 -11 19 -7 6 3 4 -7 -4 -23 -12 -23 -12 -35 -4
-51 6 -11 13 -20 16 -20 2 0 0 9 -6 20 -15 29 2 25 25 -6 24 -33 32 -129 10
-120 -10 3 -15 -1 -15 -13 0 -10 7 -21 15 -25 25 -9 17 -27 -10 -20 -16 4 -30
0 -42 -11 -16 -17 -15 -17 15 -10 25 5 32 3 32 -9 0 -9 5 -16 10 -16 6 0 10 7
10 15 0 8 5 15 10 15 6 0 10 8 11 18 0 10 3 12 6 4 2 -6 10 -9 16 -6 7 4 2 -3
-10 -15 -29 -28 -29 -32 1 -27 20 4 24 0 23 -22 0 -47 3 -62 13 -62 6 0 10 11
10 25 0 16 6 25 15 25 8 0 16 8 17 18 0 9 2 22 2 29 2 20 16 27 16 9 0 -12 5
-16 15 -13 8 4 17 2 20 -4 4 -5 -1 -12 -9 -15 -23 -9 -20 -23 4 -17 11 3 20
14 20 24 0 10 4 20 9 23 4 3 8 -11 7 -32 -1 -28 3 -37 16 -37 27 0 31 -13 9
-25 -19 -10 -20 -13 -6 -26 18 -18 20 -41 4 -46 -6 -2 -12 -16 -12 -31 -1 -15
-6 -27 -11 -27 -5 0 -6 14 -2 31 5 26 3 30 -10 25 -15 -6 -15 -4 -3 10 11 14
10 16 -6 13 -11 -2 -26 0 -32 4 -7 5 -13 6 -13 4 0 -12 26 -53 35 -55 6 -1 10
-6 10 -11 0 -5 3 -13 8 -17 4 -4 7 -16 7 -26 0 -11 5 -16 10 -13 6 3 10 2 10
-3 0 -5 -9 -12 -21 -15 -12 -3 -19 -10 -15 -15 12 -20 -25 -7 -56 20 -18 15
-37 28 -41 28 -5 0 -5 4 -2 10 3 5 0 7 -8 5 -7 -3 -30 10 -51 30 -21 19 -44
35 -52 35 -8 0 -12 5 -9 10 4 6 -7 10 -25 10 -18 0 -33 -6 -36 -15 -5 -12 -10
-13 -19 -5 -19 16 -63 22 -70 10 -4 -6 -15 -6 -31 0 -34 13 -39 13 -25 -4 9
-11 6 -12 -15 -8 -19 3 -23 7 -12 14 8 6 4 7 -12 2 -14 -4 -42 -7 -62 -6 -21
0 -40 -3 -43 -8 -6 -9 -44 -2 -63 13 -9 7 -16 7 -24 -1 -8 -8 -15 -8 -24 -1
-8 7 -14 7 -19 -1 -3 -5 -14 -10 -23 -10 -13 0 -14 2 -4 9 10 6 9 10 -7 14
-12 3 -19 1 -15 -4 3 -5 -1 -10 -8 -10 -7 -1 -28 -2 -46 -4 -18 -1 -38 -9 -45
-18 -7 -9 -25 -21 -42 -27 -30 -11 -30 -11 -10 8 11 11 23 18 27 16 15 -9 16
15 1 27 -9 8 -14 9 -10 3 3 -6 -7 -21 -23 -33 -20 -14 -30 -17 -30 -9 0 18
-20 -12 -20 -31 0 -11 3 -11 15 -1 21 18 19 7 -5 -20 l-20 -23 -1 29 c0 28 -1
28 -9 6 -8 -20 -13 -21 -31 -11 -14 7 -19 7 -15 0 12 -19 -26 -51 -53 -44 -21
5 -24 3 -13 -8 19 -20 14 -32 -10 -26 -13 3 -31 2 -41 -2 -17 -6 -17 -8 3 -34
12 -15 19 -31 16 -35 -8 -13 16 -82 26 -76 4 3 8 -8 8 -23 l0 -29 -61 6 c-33
3 -63 2 -66 -3 -3 -5 -10 -4 -16 2 -6 6 -24 11 -40 11 -19 0 -26 4 -21 12 5 8
2 9 -11 4 -15 -5 -16 -4 -5 9 7 8 17 12 22 9 6 -4 5 4 -2 16 -9 18 -9 24 0 30
7 4 13 26 13 49 0 22 4 38 8 35 5 -3 6 2 3 11 -4 10 -14 15 -25 12 -15 -4 -19
0 -19 20 0 14 -4 21 -10 18 -6 -3 -13 0 -16 9 -3 9 -12 12 -21 9 -10 -4 -14
-2 -10 4 4 6 -5 18 -18 27 -14 9 -23 21 -20 26 4 6 1 10 -4 10 -6 0 -11 -5
-11 -11 0 -5 -10 -3 -22 5 -12 9 -31 16 -41 16 -10 0 -16 4 -12 9 3 6 -15 8
-46 6 -33 -2 -47 0 -38 6 10 6 5 9 -17 9 -16 0 -35 5 -42 12 -15 15 -27 18
-122 28 -47 6 -79 5 -86 -1 -8 -7 -13 -6 -16 1 -2 6 -19 13 -37 15 -32 4 -33
3 -15 -10 19 -15 18 -15 -1 -8 -11 3 -23 10 -26 15 -7 11 -41 -1 -33 -13 3 -5
-2 -6 -10 -3 -9 3 -16 9 -16 13 0 4 -9 7 -20 7 -11 0 -20 -4 -20 -9 0 -4 -4
-6 -9 -3 -14 9 -76 -21 -95 -46 -9 -13 -14 -17 -10 -9 12 23 -88 -57 -121 -97
-16 -20 -30 -39 -30 -41 0 -3 -8 -7 -19 -8 -16 -3 -17 -1 -5 14 12 15 12 16
-3 10 -15 -5 -18 -1 -18 23 0 17 -4 30 -9 30 -19 0 -22 -21 -7 -50 8 -17 10
-30 5 -30 -5 0 -8 -5 -6 -11 1 -6 -5 -14 -13 -16 -9 -3 -11 -1 -5 4 14 11 17
33 4 33 -5 0 -7 5 -4 10 3 6 -4 10 -17 10 -17 0 -19 -3 -9 -9 8 -5 9 -11 3
-15 -6 -4 -9 -15 -7 -26 3 -17 -2 -20 -31 -20 -36 0 -43 10 -19 30 8 7 12 17
8 23 -4 6 0 8 9 4 12 -4 14 -1 11 14 -3 11 0 19 7 19 7 0 10 7 6 16 -5 12 -2
15 13 11 13 -3 26 5 42 26 17 23 18 29 6 24 -27 -10 -19 12 16 45 17 17 26 28
20 24 -7 -4 -13 -2 -13 4 0 6 -4 8 -10 5 -16 -10 -11 11 5 25 9 7 14 19 11 27
-5 11 -1 11 16 2 17 -9 23 -9 26 0 2 6 8 9 13 5 5 -3 9 2 9 10 0 18 -25 22
-33 6 -3 -6 -4 -5 -3 2 1 7 16 15 32 17 l29 4 -25 7 -25 8 25 1 c19 1 22 4 11
10 -10 7 0 11 35 16 27 3 55 7 63 8 8 1 16 8 17 15 1 7 0 8 -3 2 -6 -13 -33
-13 -33 -1 0 6 5 13 10 16 6 4 10 14 9 23 -1 10 -1 24 0 32 1 13 3 13 10 1 8
-12 12 -12 25 2 9 8 16 21 16 28 0 6 7 17 16 24 15 10 15 13 0 27 -9 9 -16 21
-16 26 0 11 30 25 38 17 3 -3 0 -5 -6 -5 -7 0 -12 -7 -12 -15 0 -20 10 -19 26
3 16 20 18 72 4 72 -5 0 -10 -7 -10 -15 0 -8 -4 -15 -10 -15 -5 0 -10 7 -10
15 0 8 4 15 9 15 5 0 11 9 14 21 3 12 10 18 16 14 6 -3 11 0 11 8 0 20 37 52
42 36 3 -8 11 -10 24 -4 10 4 26 7 34 6 11 -1 12 0 3 6 -7 5 -10 18 -6 31 6
23 23 30 23 10 1 -21 32 65 35 93 3 38 43 89 75 95 18 4 32 17 43 40 10 20 26
36 42 40 14 3 25 11 25 16 0 5 6 8 12 6 7 -3 21 6 31 19 13 16 25 22 38 18 14
-5 19 -1 19 11 0 14 3 15 12 6 8 -8 16 -8 32 0 31 17 59 21 50 6 -4 -6 3 -4
17 5 14 10 31 14 44 10 11 -3 26 -6 33 -6z m942 -287 c0 -5 -5 -10 -11 -10 -5
0 -7 5 -4 10 3 6 8 10 11 10 2 0 4 -4 4 -10z m110 -110 c0 -11 -2 -20 -4 -20
-2 0 -6 9 -9 20 -3 11 -1 20 4 20 5 0 9 -9 9 -20z m30 0 c0 -5 -2 -10 -4 -10
-3 0 -8 5 -11 10 -3 6 -1 10 4 10 6 0 11 -4 11 -10z m-40 -34 c0 -3 -4 -8 -10
-11 -5 -3 -10 -1 -10 4 0 6 5 11 10 11 6 0 10 -2 10 -4z m35 -6 c-3 -5 -11
-10 -16 -10 -6 0 -7 5 -4 10 3 6 11 10 16 10 6 0 7 -4 4 -10z m70 -40 c11 -17
-5 -11 -28 11 l-22 21 22 -11 c12 -6 25 -16 28 -21z m345 -366 c0 -2 -7 -4
-15 -4 -8 0 -15 4 -15 10 0 5 7 7 15 4 8 -4 15 -8 15 -10z m-40 -4 c0 -5 -4
-10 -10 -10 -5 0 -10 5 -10 10 0 6 5 10 10 10 6 0 10 -4 10 -10z m20 -146 c0
-8 -4 -12 -10 -9 -5 3 -10 10 -10 16 0 5 5 9 10 9 6 0 10 -7 10 -16z m37 -75
c-3 -13 3 -21 24 -28 35 -12 36 -17 5 -23 -18 -4 -23 -1 -19 9 3 8 0 13 -8 11
-8 -2 -13 4 -13 15 1 9 -2 17 -7 17 -5 0 -9 7 -9 15 0 9 6 12 16 8 9 -3 14
-13 11 -24z m-40 -36 c-3 -10 -5 -4 -5 12 0 17 2 24 5 18 2 -7 2 -21 0 -30z
m-1877 -13 c16 -5 2 -6 -35 -3 -33 3 -62 7 -64 9 -8 7 74 2 99 -6z m-464 -18
c-10 -2 -22 0 -28 6 -6 6 0 7 19 4 21 -5 23 -7 9 -10z m61 12 c-3 -3 -12 -4
-19 -1 -8 3 -5 6 6 6 11 1 17 -2 13 -5z m2405 -12 c-7 -2 -12 -13 -12 -25 0
-20 0 -20 -14 -1 -13 16 -13 19 0 22 8 2 14 8 14 13 0 6 5 7 12 3 9 -6 9 -9 0
-12z m-1846 -24 c4 -6 -2 -7 -17 -3 -35 10 -45 23 -15 18 15 -3 29 -10 32 -15z
m384 -12 c0 -5 -7 -3 -15 4 -8 7 -12 17 -9 22 7 10 24 -9 24 -26z m-1315 -6
c-27 -12 -35 -12 -35 0 0 6 12 10 28 9 24 0 25 -1 7 -9z m329 -24 c-3 -8 -12
-12 -19 -10 -7 3 -23 0 -35 -6 -17 -9 -25 -9 -34 0 -8 8 -7 10 5 5 9 -3 22 1
29 10 16 20 62 21 54 1z m1607 -3 c12 -15 12 -16 -4 -10 -10 4 -25 7 -33 7 -8
0 -14 5 -14 10 0 16 36 11 51 -7z m-1705 -42 c-9 -14 -36 -15 -36 -1 0 5 7 7
15 4 11 -5 14 -2 9 12 -6 15 -4 16 6 7 7 -6 9 -16 6 -22z m492 1 c20 -30 11
-28 -19 4 -13 15 -18 25 -10 22 8 -2 21 -14 29 -26z m173 11 c13 -16 12 -17
-3 -4 -10 7 -18 15 -18 17 0 8 8 3 21 -13z m1633 -39 c26 -9 45 -18 43 -20 -2
-2 -28 5 -58 15 -30 11 -49 20 -43 20 6 1 32 -6 58 -15z m-1597 -26 c-3 -8 -6
-5 -6 6 -1 11 2 17 5 13 3 -3 4 -12 1 -19z m1080 -30 c-3 -7 -5 -2 -5 12 0 14
2 19 5 13 2 -7 2 -19 0 -25z m-424 -33 c-3 -9 -8 -14 -10 -11 -3 3 -2 9 2 15
9 16 15 13 8 -4z m1289 -7 c-7 -7 -12 -8 -12 -2 0 14 12 26 19 19 2 -3 -1 -11
-7 -17z m-1432 -50 c24 -13 46 -29 48 -37 3 -9 0 -11 -9 -5 -12 7 -12 5 0 -9
16 -20 2 -23 -18 -4 -11 10 -13 9 -7 -1 4 -7 1 -15 -8 -18 -13 -5 -12 -13 9
-54 13 -26 32 -90 41 -141 9 -52 21 -99 25 -105 5 -6 16 -44 24 -84 9 -41 21
-77 27 -81 32 -20 164 -149 184 -181 24 -38 30 -59 17 -56 -5 1 -19 -2 -33 -6
-16 -4 -36 -1 -55 8 -17 9 -35 16 -42 16 -6 0 -15 9 -18 20 -3 11 -13 20 -21
20 -9 0 -12 5 -8 11 5 8 1 8 -14 0 -17 -9 -22 -8 -27 9 -3 11 -13 20 -21 20
-8 0 -14 8 -15 18 0 9 -3 12 -5 6 -3 -7 -14 -10 -25 -7 -10 3 -25 1 -32 -4
-31 -25 -112 -64 -139 -67 -23 -3 -32 1 -38 18 -5 11 -9 15 -9 8 -1 -10 -4
-10 -16 2 -8 8 -15 19 -15 25 0 6 -3 10 -7 9 -5 0 -16 2 -26 7 -9 4 -26 5 -37
2 -13 -3 -24 1 -30 14 -16 29 -37 23 -62 -16 -14 -20 -31 -35 -43 -35 -15 0
-17 -3 -7 -9 9 -5 5 -8 -15 -8 -15 0 -47 -4 -70 -10 -39 -10 -41 -9 -46 13 -2
13 -1 22 3 21 3 -1 29 21 56 48 28 28 71 66 97 85 26 19 50 45 53 58 3 12 10
22 15 22 5 0 9 11 9 25 0 14 15 56 34 93 18 37 43 100 55 140 15 49 33 86 57
111 36 41 37 65 3 74 -10 3 -19 11 -19 19 0 11 2 11 9 0 6 -11 9 -9 13 6 10
36 96 41 158 10z m1467 -33 c13 3 23 2 20 -2 -6 -10 19 -34 27 -26 3 4 6 -1 6
-10 0 -15 -4 -15 -42 -1 -58 20 -72 33 -56 52 12 13 13 13 16 -2 3 -13 10 -16
29 -11z m-2767 5 c0 -5 -4 -10 -10 -10 -5 0 -10 5 -10 10 0 6 5 10 10 10 6 0
10 -4 10 -10z m5 -40 c-18 -8 -17 -9 7 -9 21 -1 29 -7 34 -25 3 -14 12 -27 21
-30 8 -3 11 -11 8 -17 -4 -6 2 -13 14 -16 12 -3 21 -9 21 -14 0 -5 7 -9 15 -9
8 0 15 -7 15 -16 0 -9 6 -14 13 -11 7 3 19 -4 25 -14 7 -10 19 -19 27 -19 7 0
20 -8 27 -19 7 -10 18 -19 23 -19 6 -1 11 -10 13 -21 2 -13 9 -18 18 -14 8 3
14 1 14 -4 0 -11 92 -9 109 2 6 3 11 1 11 -4 0 -19 20 -12 21 7 0 13 2 12 9
-5 11 -27 14 -28 34 -8 8 8 36 17 63 20 35 4 42 3 28 -4 l-20 -10 20 -1 20 -1
-20 -9 c-19 -8 -19 -9 3 -9 12 -1 22 -7 23 -13 0 -10 2 -10 6 0 2 6 16 12 29
12 14 0 22 4 19 10 -3 6 -1 10 4 10 6 0 11 -4 11 -8 0 -11 58 -3 66 9 3 5 13
9 23 9 9 0 38 13 64 30 26 16 47 25 47 19 0 -5 14 -23 31 -40 28 -27 29 -31
14 -45 -9 -9 -19 -13 -23 -10 -3 4 0 11 8 16 13 8 13 11 1 22 -11 10 -14 10
-18 0 -3 -6 -9 -10 -14 -6 -5 3 -8 0 -7 -8 2 -7 -3 -12 -9 -11 -15 3 -17 -33
-3 -42 6 -3 10 -2 10 2 0 16 38 12 52 -5 8 -9 8 -13 1 -9 -6 4 -13 4 -16 0 -2
-5 -2 -2 -1 5 6 21 -15 13 -32 -12 -9 -15 -21 -22 -30 -19 -17 6 -19 -13 -1
-21 9 -5 9 -7 0 -12 -10 -4 -10 -11 -2 -26 17 -31 42 9 40 66 0 18 0 18 14 0
10 -14 10 -24 3 -38 -19 -36 -100 -116 -111 -109 -6 3 -7 1 -3 -5 4 -6 -22
-25 -67 -47 l-73 -36 -159 0 -158 1 -76 36 c-42 20 -84 44 -93 52 -10 8 -18
11 -18 7 0 -14 -76 98 -102 150 -33 65 -38 89 -48 212 -9 121 -6 143 24 142
20 0 20 -1 1 -9z m2764 -109 c-7 -2 -6 -7 2 -12 16 -9 29 -250 18 -326 -3 -24
-3 -45 0 -48 9 -10 10 -35 0 -29 -5 3 -9 -2 -9 -11 0 -9 -4 -14 -8 -11 -5 3
-6 -8 -4 -25 3 -23 1 -28 -10 -24 -12 5 -15 -3 -15 -32 -1 -21 -2 -54 -3 -73
l-2 -35 -8 30 c-6 23 -8 25 -9 8 0 -12 -6 -25 -13 -29 -6 -4 -8 -3 -5 2 3 6 1
16 -5 24 -8 13 -9 13 -5 0 2 -8 1 -24 -4 -35 -7 -19 -8 -19 -8 2 -1 22 -41 55
-41 33 0 -5 6 -10 13 -11 10 0 10 -2 0 -6 -7 -2 -13 -12 -13 -21 0 -15 2 -15
10 -2 6 9 10 10 10 3 0 -6 -7 -19 -16 -27 -14 -15 -11 -20 9 -17 4 0 7 -3 7
-9 0 -5 7 -10 16 -10 14 0 14 -3 4 -15 -7 -8 -8 -15 -3 -15 15 0 13 -47 -3
-61 -13 -10 -14 -7 -11 25 2 20 0 39 -5 42 -4 3 -6 10 -3 15 4 5 -3 9 -14 9
-15 0 -21 6 -21 21 0 11 -5 17 -10 14 -6 -4 -8 -10 -5 -15 3 -4 -1 -10 -9 -13
-10 -4 -12 0 -9 14 8 30 -28 20 -40 -11 -3 -8 -6 3 -6 25 0 24 3 35 7 27 6 -9
12 -5 20 13 7 15 8 24 3 21 -4 -3 -16 3 -26 14 -15 17 -16 24 -6 42 11 21 11
21 6 -7 -4 -22 -3 -26 5 -15 5 8 10 29 10 47 0 25 -4 31 -15 27 -8 -4 -12 -11
-8 -17 4 -6 0 -8 -9 -4 -25 9 -37 -11 -27 -46 5 -17 13 -35 19 -41 13 -13 13
-56 0 -56 -5 0 -10 10 -10 22 0 22 -26 58 -43 58 -5 0 -3 -8 4 -17 12 -14 12
-16 0 -9 -9 6 -12 5 -9 -5 3 -8 13 -13 22 -13 12 1 15 -3 11 -16 -3 -10 -1
-21 5 -25 6 -3 8 -11 5 -16 -3 -5 2 -6 11 -2 12 4 15 2 12 -8 -3 -8 -10 -13
-16 -12 -12 3 -26 -52 -17 -67 3 -5 4 -10 0 -10 -14 0 -35 76 -35 128 0 26 -3
27 -37 5 -24 -16 -26 -16 -38 0 -13 18 -30 24 -20 7 7 -12 -12 -40 -27 -40 -5
0 -6 10 -3 23 5 16 4 18 -3 8 -14 -20 -46 -5 -39 18 3 12 -1 22 -9 25 -8 3
-14 1 -14 -4 0 -6 -7 -10 -15 -10 -8 0 -15 -4 -15 -10 0 -5 -6 -7 -14 -4 -8 3
-17 1 -21 -5 -10 -17 -35 -13 -29 4 4 10 0 15 -12 15 -11 1 8 10 41 21 75 26
106 47 176 120 37 38 68 85 94 141 22 45 52 95 67 110 15 15 28 34 28 43 0 8
7 15 15 15 8 0 23 9 34 21 22 24 45 17 36 -12 -4 -11 -2 -19 4 -19 6 0 11 11
11 25 0 17 6 25 17 25 13 0 14 3 5 12 -7 7 -12 17 -12 23 1 12 40 -33 40 -47
0 -5 -10 -6 -22 -3 -17 6 -20 4 -15 -10 4 -9 7 -21 7 -27 0 -5 12 4 26 21 22
27 24 35 16 60 -7 20 -7 32 1 40 9 9 8 14 -3 22 -11 8 -9 9 10 3 22 -6 23 -5
11 10 -9 10 -10 16 -2 16 6 0 11 8 11 18 0 14 2 15 10 2 6 -10 6 -16 -1 -19z
m-1253 -126 c-25 -19 -19 -25 15 -18 25 5 31 3 27 -8 -3 -8 2 -19 10 -25 7 -5
15 -22 15 -37 2 -34 13 -35 21 -1 l7 27 16 -23 16 -23 19 24 c11 13 16 18 12
10 -6 -11 -1 -13 24 -8 19 4 32 2 32 -3 0 -6 11 -10 25 -10 14 0 25 -4 25 -10
0 -5 9 -10 21 -10 11 0 17 -4 14 -11 -5 -6 10 -10 42 -9 75 0 83 -1 83 -11 0
-5 7 -9 15 -9 8 0 15 4 15 8 0 5 6 15 13 23 6 8 11 12 9 10 -3 -5 74 -31 91
-31 18 0 5 19 -15 23 -21 4 -20 4 3 6 15 0 32 -6 39 -14 7 -9 18 -14 24 -12 6
3 33 1 59 -3 26 -4 50 -3 53 2 3 5 15 6 27 3 12 -2 16 -2 10 1 -28 12 -10 19
44 17 44 -2 53 0 38 7 -17 9 -17 10 8 7 15 -3 27 -1 27 3 0 4 11 8 25 8 19 0
25 -6 25 -23 0 -38 -67 -159 -115 -207 -25 -25 -45 -51 -45 -57 0 -6 -3 -10
-7 -9 -11 3 -113 -45 -113 -53 0 -10 -270 0 -335 12 -61 12 -114 34 -116 47 0
4 -2 18 -3 31 -2 13 -11 32 -22 41 -10 8 -20 22 -22 30 -2 8 -11 21 -20 28 -9
7 -16 22 -14 33 2 12 -2 18 -10 17 -8 -2 -12 4 -10 15 2 9 -2 17 -7 17 -5 0
-13 10 -17 22 l-6 21 -14 -24 c-7 -13 -13 -19 -14 -12 0 7 -7 10 -17 6 -11 -4
-14 -3 -9 5 4 7 2 12 -4 12 -6 0 -10 20 -9 50 2 38 -2 54 -15 63 -20 15 -13
44 11 44 14 0 14 -2 -1 -12z m1501 -107 c-3 -7 -5 -2 -5 12 0 14 2 19 5 13 2
-7 2 -19 0 -25z m0 -110 c-2 -13 -4 -5 -4 17 -1 22 1 32 4 23 2 -10 2 -28 0
-40z m-1470 13 c-1 -17 -5 -27 -9 -23 -7 7 0 52 8 52 2 0 2 -13 1 -29z m-1751
-48 c-11 -11 -19 6 -11 24 8 17 8 17 12 0 3 -10 2 -21 -1 -24z m42 4 c10 -36
9 -74 -1 -82 -4 -3 -5 -2 -2 1 2 4 1 14 -4 23 -5 9 -11 33 -15 54 -9 46 9 50
22 4z m2582 3 c-12 -16 -24 -30 -26 -30 -3 0 4 14 16 30 12 17 24 30 26 30 3
0 -4 -13 -16 -30z m-1632 -94 c-10 -7 -14 -17 -10 -21 4 -5 2 -5 -4 -2 -6 3
-18 -7 -28 -24 -11 -19 -25 -29 -42 -29 -13 0 -24 5 -24 10 0 6 5 10 11 10 5
0 7 5 3 12 -5 7 -3 8 6 3 7 -4 15 -3 19 2 7 10 73 53 81 53 3 -1 -3 -7 -12
-14z m-848 -36 c0 -5 -5 -10 -11 -10 -5 0 -7 5 -4 10 3 6 8 10 11 10 2 0 4 -4
4 -10z m70 0 c0 -5 -2 -10 -4 -10 -3 0 -8 5 -11 10 -3 6 -1 10 4 10 6 0 11 -4
11 -10z m2985 -70 c-12 -36 -14 -38 -10 -12 2 17 0 32 -5 32 -16 0 -12 22 8
40 15 15 17 15 20 1 1 -9 -4 -36 -13 -61z m-2640 50 c3 -5 2 -10 -4 -10 -5 0
-13 5 -16 10 -3 6 -2 10 4 10 5 0 13 -4 16 -10z m290 -5 c-29 -12 -129 -28
-170 -26 -11 0 -40 0 -64 0 -31 0 -42 4 -39 13 4 10 39 14 138 15 73 1 135 5
138 8 3 3 10 5 16 4 6 0 -2 -7 -19 -14z m-605 -25 c0 -5 -2 -10 -4 -10 -3 0
-8 5 -11 10 -3 6 -1 10 4 10 6 0 11 -4 11 -10z m22 -51 c5 -3 3 -9 -6 -12 -12
-5 -16 0 -15 21 0 16 3 21 6 12 3 -8 10 -18 15 -21z m2889 4 c-11 -5 -11 -7 0
-14 12 -7 11 -9 -1 -9 -8 0 -28 -19 -45 -41 -16 -22 -31 -35 -34 -28 -2 8 -6
7 -12 -2 -7 -12 -9 -12 -9 -1 0 8 15 27 33 43 17 16 39 35 47 44 8 8 19 15 25
14 5 0 4 -3 -4 -6z m-2256 -32 c3 -5 0 -13 -6 -17 -8 -5 -9 -3 -4 7 5 8 6 12
2 9 -13 -12 -11 -23 6 -26 9 -1 17 3 17 9 0 7 5 5 10 -3 8 -13 10 -12 11 5 1
11 5 2 9 -20 9 -45 4 -65 -16 -65 -8 0 -14 -5 -14 -11 0 -5 6 -7 13 -3 8 5 7
2 -2 -9 -7 -10 -21 -16 -30 -15 -9 2 -15 -2 -14 -8 1 -7 -6 -10 -17 -7 -11 3
-20 10 -20 15 0 5 5 6 10 3 6 -3 10 1 10 10 0 14 -5 13 -37 -6 -21 -12 -35
-19 -30 -14 4 5 -1 17 -10 28 -10 11 -13 17 -6 13 8 -4 18 6 28 29 8 20 24 39
35 42 11 3 17 9 15 14 -3 4 3 12 12 18 22 13 21 13 28 2z m2028 -58 c-5 -12
-7 -12 -14 -2 -4 7 -5 17 -3 21 3 4 0 8 -5 8 -6 0 -11 -5 -11 -12 0 -6 -3 -8
-6 -5 -4 4 -1 14 7 23 12 14 14 14 25 -1 7 -9 10 -24 7 -32z m-2428 7 c10 -11
15 -20 11 -20 -4 0 -19 9 -33 20 -17 13 -20 20 -11 20 8 0 23 -9 33 -20z m63
-13 c10 -3 5 -5 -10 -6 -17 -1 -28 4 -28 12 0 20 15 31 18 14 2 -9 11 -18 20
-20z m2032 23 c0 -5 -5 -10 -11 -10 -5 0 -7 5 -4 10 3 6 8 10 11 10 2 0 4 -4
4 -10z m-2135 -18 c-3 -3 -11 0 -18 7 -9 10 -8 11 6 5 10 -3 15 -9 12 -12z
m15 -24 c0 -5 -5 -6 -10 -3 -6 4 -17 2 -24 -4 -9 -8 -18 -6 -32 5 -10 8 -13
13 -6 9 6 -3 12 -2 12 3 0 5 14 7 30 4 17 -2 30 -9 30 -14z m2073 -35 c-6 -16
-23 -17 -23 -2 0 5 -4 8 -10 4 -5 -3 -7 -12 -4 -19 3 -8 -4 -16 -15 -19 -27
-7 -28 -37 -2 -37 11 0 23 5 27 12 4 7 3 8 -4 4 -16 -9 -15 7 0 22 20 20 26
14 18 -20 -4 -18 -12 -32 -18 -31 -61 13 -92 14 -92 4 0 -20 -17 -11 -29 16
-9 19 -9 29 -2 31 6 2 11 11 11 19 0 9 6 13 15 10 8 -4 17 -2 20 3 4 6 1 10
-4 10 -6 0 -11 5 -11 11 0 7 10 9 25 5 17 -4 30 -1 42 11 17 17 18 17 39 -2
12 -10 20 -25 17 -32z m224 25 c-3 -8 -6 -5 -6 6 -1 11 2 17 5 13 3 -3 4 -12
1 -19z m74 -68 c6 0 7 -5 3 -11 -9 -15 -22 1 -24 31 -3 39 3 49 7 13 2 -18 9
-33 14 -33z m-2744 8 c2 -17 0 -19 -7 -8 -5 8 -6 18 -4 22 8 12 10 10 11 -14z
m1888 -8 c3 -6 -1 -10 -9 -10 -12 0 -13 -6 -6 -31 9 -29 8 -30 -8 -17 -9 9
-26 15 -38 13 -15 -1 -20 4 -20 19 1 12 7 23 14 26 24 10 61 10 67 0z m69 -11
c-7 -11 -34 -12 -34 -1 0 14 11 21 26 15 8 -3 11 -9 8 -14z m591 1 c3 -5 1
-10 -4 -10 -6 0 -11 5 -11 10 0 6 2 10 4 10 3 0 8 -4 11 -10z m-645 -48 c0
-15 -2 -15 -10 -2 -13 20 -13 33 0 25 6 -3 10 -14 10 -23z m47 22 c12 -3 25
-15 29 -26 5 -17 8 -18 16 -7 8 12 9 12 6 0 -2 -8 -14 -16 -27 -18 -17 -2 -22
1 -18 11 3 8 -2 20 -11 28 -9 7 -13 8 -9 2 4 -7 0 -14 -8 -18 -10 -4 -15 1
-15 14 0 22 3 23 37 14z m814 -25 c-5 -13 -10 -19 -10 -12 -1 15 10 45 15 40
3 -2 0 -15 -5 -28z m-484 -11 c-3 -8 -6 -5 -6 6 -1 11 2 17 5 13 3 -3 4 -12 1
-19z m393 -16 c0 -15 -2 -15 -10 -2 -13 20 -13 33 0 25 6 -3 10 -14 10 -23z
m107 -18 c-3 -3 -12 -4 -19 -1 -8 3 -5 6 6 6 11 1 17 -2 13 -5z m-1637 -369
c0 -8 7 -15 16 -15 9 0 14 -5 12 -12 -5 -14 -38 -20 -38 -6 0 6 -7 8 -15 4 -9
-3 -15 0 -15 8 0 8 -6 17 -12 20 -7 3 0 4 15 1 19 -4 26 -2 22 5 -3 5 -1 10 4
10 6 0 11 -7 11 -15z m500 -445 c0 -5 -4 -10 -10 -10 -5 0 -10 5 -10 10 0 6 5
10 10 10 6 0 10 -4 10 -10z"/>
<path d="M2958 6163 c7 -3 16 -2 19 1 4 3 -2 6 -13 5 -11 0 -14 -3 -6 -6z"/>
<path d="M3320 6100 c0 -5 5 -10 11 -10 5 0 7 5 4 10 -3 6 -8 10 -11 10 -2 0
-4 -4 -4 -10z"/>
<path d="M2700 5871 c0 -6 6 -11 14 -11 8 0 17 -8 20 -17 3 -11 4 -8 3 7 -2
24 -37 44 -37 21z"/>
<path d="M5041 5824 c0 -11 3 -14 6 -6 3 7 2 16 -1 19 -3 4 -6 -2 -5 -13z"/>
<path d="M2760 5779 c0 -5 5 -7 10 -4 6 3 10 8 10 11 0 2 -4 4 -10 4 -5 0 -10
-5 -10 -11z"/>
<path d="M3578 5783 c7 -3 16 -2 19 1 4 3 -2 6 -13 5 -11 0 -14 -3 -6 -6z"/>
<path d="M2615 5700 c3 -5 8 -10 11 -10 2 0 4 5 4 10 0 6 -5 10 -11 10 -5 0
-7 -4 -4 -10z"/>
<path d="M2560 5630 c-9 -6 -10 -10 -3 -10 6 0 15 5 18 10 8 12 4 12 -15 0z"/>
<path d="M3805 5570 c-3 -5 -1 -10 4 -10 6 0 11 5 11 10 0 6 -2 10 -4 10 -3 0
-8 -4 -11 -10z"/>
<path d="M3078 4953 c7 -3 16 -2 19 1 4 3 -2 6 -13 5 -11 0 -14 -3 -6 -6z"/>
<path d="M3383 4821 c1 -15 4 -17 14 -9 7 5 10 14 7 19 -10 16 -23 9 -21 -10z"/>
<path d="M5311 4984 c0 -11 3 -14 6 -6 3 7 2 16 -1 19 -3 4 -6 -2 -5 -13z"/>
<path d="M5277 4971 c-4 -17 -3 -21 5 -13 5 5 8 16 6 23 -3 8 -7 3 -11 -10z"/>
<path d="M5192 4828 l0 -43 12 35 c13 35 12 50 -3 50 -5 0 -9 -19 -9 -42z"/>
<path d="M5290 4851 c0 -6 4 -11 9 -11 5 0 12 -19 16 -41 5 -29 10 -37 16 -28
5 8 4 18 -1 23 -6 6 -10 18 -10 27 0 9 -7 22 -15 29 -10 9 -15 9 -15 1z"/>
<path d="M5099 4836 c0 -1 -2 -14 -3 -29 -2 -32 12 -47 25 -26 6 11 9 8 9 -8
0 -12 5 -25 11 -28 6 -4 8 -14 5 -22 -3 -8 -2 -12 3 -8 5 3 12 -1 14 -7 3 -7
6 2 6 20 1 21 -4 32 -13 32 -9 0 -12 10 -10 33 1 17 0 26 -3 20 -8 -20 -26
-15 -21 5 3 11 0 19 -8 19 -8 0 -14 -1 -15 -1z"/>
<path d="M5263 4825 c-3 -9 -3 -19 1 -22 3 -4 6 1 6 11 0 10 5 14 12 10 7 -4
8 -3 4 4 -10 16 -15 15 -23 -3z"/>
<path d="M5085 4740 c-16 -7 -17 -9 -3 -9 9 -1 20 4 23 9 7 11 7 11 -20 0z"/>
<path d="M5210 4740 c-11 -7 -12 -12 -4 -20 8 -8 13 -6 17 9 3 12 4 21 4 21
-1 0 -9 -5 -17 -10z"/>
<path d="M5310 4735 c0 -8 -4 -15 -10 -15 -5 0 -10 -4 -10 -8 0 -5 7 -9 15 -9
9 0 15 10 15 24 0 13 -2 23 -5 23 -3 0 -5 -7 -5 -15z"/>
<path d="M5220 4689 c0 -6 7 -9 15 -5 8 3 19 -2 24 -12 9 -15 10 -15 11 -1 0
9 -7 20 -16 23 -23 9 -34 7 -34 -5z"/>
<path d="M5140 4670 c0 -5 5 -10 10 -10 6 0 10 5 10 10 0 6 -4 10 -10 10 -5 0
-10 -4 -10 -10z"/>
<path d="M5230 4661 c0 -9 30 -24 36 -18 2 1 -6 8 -16 15 -11 7 -20 8 -20 3z"/>
<path d="M5271 4614 c0 -11 3 -14 6 -6 3 7 2 16 -1 19 -3 4 -6 -2 -5 -13z"/>
<path d="M5168 4560 c-19 -18 -24 -40 -9 -40 5 0 12 8 16 18 7 16 8 16 14 -2
7 -19 8 -19 13 2 8 30 -13 44 -34 22z"/>
<path d="M5040 4493 c0 -4 5 -15 10 -23 8 -13 10 -13 10 2 0 9 -4 20 -10 23
-5 3 -10 3 -10 -2z"/>
<path d="M3273 4470 c3 -11 1 -17 -4 -14 -13 8 -49 -5 -49 -18 0 -7 4 -7 13 0
7 6 23 9 35 5 13 -3 22 -1 22 6 0 7 5 9 10 6 15 -9 12 4 -4 21 -20 20 -29 17
-23 -6z"/>
<path d="M3171 4427 c-8 -10 -7 -14 2 -14 8 0 14 6 14 14 0 7 -1 13 -2 13 -2
0 -8 -6 -14 -13z"/>
<path d="M3783 7563 c9 -2 25 -2 35 0 9 3 1 5 -18 5 -19 0 -27 -2 -17 -5z"/>
<path d="M2620 4709 c0 -5 5 -7 10 -4 6 3 10 8 10 11 0 2 -4 4 -10 4 -5 0 -10
-5 -10 -11z"/>
<path d="M2920 4541 c0 -10 19 -25 25 -20 1 2 -3 10 -11 17 -8 7 -14 8 -14 3z"/>
<path d="M2800 3450 c0 -5 5 -10 11 -10 5 0 7 5 4 10 -3 6 -8 10 -11 10 -2 0
-4 -4 -4 -10z"/>
<path d="M5120 3375 c0 -2 8 -24 18 -47 24 -61 23 -239 -3 -328 -25 -86 -73
-206 -123 -305 -60 -119 -182 -358 -192 -375 -4 -8 -16 -31 -24 -50 -9 -19
-20 -42 -25 -50 -5 -8 -22 -42 -37 -75 -16 -33 -57 -102 -92 -155 -35 -52 -75
-116 -88 -142 -26 -51 -80 -109 -241 -257 -57 -52 -108 -107 -115 -122 -7 -15
-17 -25 -23 -21 -5 3 -4 -2 4 -11 16 -21 31 -13 32 16 0 16 2 18 7 7 4 -8 14
-17 22 -18 8 -2 12 0 8 4 -4 4 13 18 39 30 54 28 60 29 43 9 -7 -8 -9 -15 -5
-15 4 0 1 -7 -6 -16 -7 -9 -14 -21 -15 -28 -1 -6 -6 -20 -10 -30 -5 -15 -4
-17 6 -11 7 4 1 -14 -13 -41 -36 -70 -87 -180 -87 -190 0 -4 -8 -26 -18 -48
-23 -51 -49 -114 -119 -290 -40 -99 -58 -134 -65 -125 -6 9 -7 3 -3 -18 3 -17
2 -34 -4 -37 -8 -5 -38 -82 -47 -121 -5 -20 -64 -161 -79 -187 -8 -14 -15 -32
-15 -40 0 -7 -9 -24 -20 -38 -15 -19 -20 -21 -20 -8 0 9 6 19 13 21 8 4 8 8 2
14 -13 11 -15 20 -30 203 -15 167 -43 407 -51 429 -5 16 15 43 27 35 5 -3 9 1
9 9 0 17 57 70 99 91 17 9 31 20 31 25 0 12 40 6 49 -7 3 -6 12 -7 19 -3 11 6
9 21 -8 72 -18 51 -21 80 -18 141 9 160 -23 251 -146 415 l-71 94 -87 2 -87 3
-43 -44 c-24 -24 -86 -72 -138 -107 -52 -34 -107 -74 -122 -88 -48 -45 -106
-137 -128 -201 -31 -95 -28 -154 13 -213 27 -39 36 -83 17 -83 -5 0 -10 -5
-10 -11 0 -5 4 -8 9 -4 25 15 18 -24 -25 -127 -25 -62 -77 -205 -116 -317 -38
-112 -80 -225 -92 -250 -22 -43 -126 -319 -126 -334 0 -4 1170 -7 2600 -7
l2600 0 0 818 0 818 -32 17 c-18 10 -58 33 -88 52 -30 20 -66 40 -79 45 -13 6
-50 26 -83 45 -32 19 -56 31 -53 25 3 -6 -1 -7 -9 -4 -9 3 -14 9 -12 13 9 13
-125 72 -147 66 -16 -5 -18 -4 -9 3 14 9 -5 20 -171 96 -32 15 -62 24 -67 21
-6 -3 -10 -1 -10 4 0 6 -9 11 -19 11 -11 0 -22 4 -25 9 -4 5 -17 8 -31 6 -15
-1 -29 4 -34 13 -5 8 -20 16 -34 16 -13 1 -31 6 -38 12 -8 6 -54 25 -104 43
-190 70 -221 81 -240 91 -49 24 -74 29 -79 17 -3 -8 -5 -7 -5 3 -1 8 -22 23
-49 33 -26 11 -68 30 -93 43 -51 26 -64 29 -54 14 3 -5 1 -10 -4 -10 -6 0 -11
6 -11 14 0 14 -122 86 -146 86 -7 0 -14 4 -16 9 -1 5 -21 17 -43 28 -65 33
-210 119 -292 174 -101 68 -197 111 -316 139 l-98 23 -60 84 c-33 46 -96 157
-140 248 -44 90 -91 178 -105 195 -24 28 -84 68 -84 55z"/>
<path d="M2823 3028 c-6 -7 -30 -52 -53 -100 -41 -82 -46 -88 -79 -94 -61 -10
-231 -54 -331 -86 -108 -34 -200 -78 -345 -165 -55 -32 -116 -66 -135 -75 -19
-9 -78 -36 -130 -61 -52 -25 -114 -50 -137 -57 -24 -7 -43 -17 -43 -21 0 -4
-8 -7 -18 -6 -10 0 -54 -13 -98 -30 -43 -18 -146 -53 -229 -78 -82 -26 -163
-53 -180 -60 -16 -8 -59 -26 -95 -41 -89 -36 -248 -117 -301 -152 -24 -16 -69
-37 -99 -46 -118 -37 -261 -146 -326 -249 -40 -62 -82 -149 -93 -192 -5 -22
-23 -80 -40 -129 -17 -48 -38 -122 -47 -165 -19 -93 -33 -389 -41 -863 l-5
-358 1334 0 1334 0 22 123 c29 158 43 305 43 432 0 56 -1 106 -2 111 -1 5 0
11 1 14 4 11 10 110 14 245 6 157 9 189 23 225 6 14 13 48 17 75 16 118 25
128 64 72 l22 -32 -4 30 c-22 136 -32 177 -54 225 -25 53 -26 61 -24 225 2
135 -2 196 -18 290 -31 175 -38 461 -16 630 17 127 59 323 77 358 11 20 6 23
-8 5z m-113 -2038 c0 -5 -5 -10 -11 -10 -5 0 -7 5 -4 10 3 6 8 10 11 10 2 0 4
-4 4 -10z m-2 -74 c-3 -24 -1 -51 5 -61 6 -12 6 -16 0 -12 -7 4 -11 -29 -11
-91 -1 -142 -6 -196 -17 -204 -7 -5 -7 -8 0 -8 10 0 11 -328 0 -338 -12 -12
-15 9 -16 104 -2 95 9 432 16 484 1 14 3 58 4 98 1 46 5 72 12 72 8 0 10 -15
7 -44z"/>
<path d="M4045 894 c-3 -25 -4 -48 -1 -52 3 -3 6 3 6 14 0 10 6 31 14 46 13
25 12 38 -5 38 -3 0 -10 -21 -14 -46z"/>
</g>
</svg>
